<?xml version="1.0" encoding="UTF-8"?>
<svg width="9px" height="9px" viewBox="0 0 9 9" version="1.1" xmlns="http://www.w3.org/2000/svg" xmlns:xlink="http://www.w3.org/1999/xlink">
    <!-- Generator: sketchtool 48.1 (47250) - http://www.bohemiancoding.com/sketch -->
    <title>7E5FB733-BA9C-4025-894C-9E8ECDCBF5CC</title>
    <desc>Created with sketchtool.</desc>
    <defs/>
    <g id="보안관제-Icon" stroke="none" stroke-width="1" fill="none" fill-rule="evenodd" transform="translate(-638.000000, -1324.000000)">
        <g id="icon/close-9*9" transform="translate(638.000000, 1324.000000)" fill="#FFFFFF">
            <g id="icon/close-11*11">
                <path d="M0,0 L1,0 L1,1 L0,1 L0,0 Z M1,1 L2,1 L2,2 L1,2 L1,1 Z M2,2 L3,2 L3,3 L2,3 L2,2 Z M3,3 L4,3 L4,4 L3,4 L3,3 Z M4,4 L5,4 L5,5 L4,5 L4,4 Z M3,5 L4,5 L4,6 L3,6 L3,5 Z M2,6 L3,6 L3,7 L2,7 L2,6 Z M1,7 L2,7 L2,8 L1,8 L1,7 Z M0,8 L1,8 L1,9 L0,9 L0,8 Z M5,3 L6,3 L6,4 L5,4 L5,3 Z M6,2 L7,2 L7,3 L6,3 L6,2 Z M7,1 L8,1 L8,2 L7,2 L7,1 Z M8,0 L9,0 L9,1 L8,1 L8,0 Z M5,5 L6,5 L6,6 L5,6 L5,5 Z M6,6 L7,6 L7,7 L6,7 L6,6 Z M7,7 L8,7 L8,8 L7,8 L7,7 Z M8,8 L9,8 L9,9 L8,9 L8,8 Z" id="Combined-Shape"/>
            </g>
        </g>
    </g>
</svg>