<?xml version="1.0" encoding="UTF-8"?>
<svg width="12px" height="8px" viewBox="0 0 12 8" version="1.1" xmlns="http://www.w3.org/2000/svg" xmlns:xlink="http://www.w3.org/1999/xlink">
    <!-- Generator: sketchtool 48.1 (47250) - http://www.bohemiancoding.com/sketch -->
    <title>D3BCE99C-0F51-4896-9B5C-8E56945A8F36</title>
    <desc>Created with sketchtool.</desc>
    <defs/>
    <g id="보안관제-Icon" stroke="none" stroke-width="1" fill="none" fill-rule="evenodd" transform="translate(-604.000000, -1324.000000)">
        <g id="icon/toast_check" transform="translate(604.000000, 1324.000000)" fill="#FFFFFF">
            <g id="icon/check-copy">
                <path d="M4,7 L3,7 L3,6 L2,6 L2,5 L1,5 L1,4 L0,4 L0,3 L1,3 L2,3 L2,4 L3,4 L3,5 L4,5 L4,6 L5,6 L5,5 L6,5 L6,4 L7,4 L7,3 L8,3 L8,2 L9,2 L9,1 L10,1 L10,0 L11,0 L12,0 L12,1 L11,1 L11,2 L10,2 L10,3 L9,3 L9,4 L8,4 L8,5 L7,5 L7,6 L6,6 L6,7 L5,7 L5,8 L4,8 L4,7 Z" id="Combined-Shape"/>
            </g>
        </g>
    </g>
</svg>